<svg width="20" height="20" viewBox="0 0 20 20" fill="none" xmlns="http://www.w3.org/2000/svg">
<path d="M15.6667 4.66667H13.6C13.4453 3.91428 13.0359 3.23823 12.4408 2.75248C11.8458 2.26673 11.1015 2.00097 10.3333 2L9 2C8.23186 2.00097 7.48755 2.26673 6.8925 2.75248C6.29745 3.23823 5.88806 3.91428 5.73333 4.66667H3.66667C3.48986 4.66667 3.32029 4.7369 3.19526 4.86193C3.07024 4.98695 3 5.15652 3 5.33333C3 5.51014 3.07024 5.67971 3.19526 5.80474C3.32029 5.92976 3.48986 6 3.66667 6H4.33333V14.6667C4.33439 15.5504 4.68592 16.3976 5.31081 17.0225C5.93571 17.6474 6.78294 17.9989 7.66667 18H11.6667C12.5504 17.9989 13.3976 17.6474 14.0225 17.0225C14.6474 16.3976 14.9989 15.5504 15 14.6667V6H15.6667C15.8435 6 16.013 5.92976 16.1381 5.80474C16.2631 5.67971 16.3333 5.51014 16.3333 5.33333C16.3333 5.15652 16.2631 4.98695 16.1381 4.86193C16.013 4.7369 15.8435 4.66667 15.6667 4.66667ZM9 3.33333H10.3333C10.7468 3.33384 11.1501 3.46225 11.4877 3.70096C11.8254 3.93967 12.0809 4.27699 12.2193 4.66667H7.114C7.25239 4.27699 7.50793 3.93967 7.84559 3.70096C8.18325 3.46225 8.58648 3.33384 9 3.33333ZM13.6667 14.6667C13.6667 15.1971 13.456 15.7058 13.0809 16.0809C12.7058 16.456 12.1971 16.6667 11.6667 16.6667H7.66667C7.13623 16.6667 6.62753 16.456 6.25245 16.0809C5.87738 15.7058 5.66667 15.1971 5.66667 14.6667V6H13.6667V14.6667Z" fill="#111928"/>
<path d="M8.33329 14.0001C8.5101 14.0001 8.67967 13.9298 8.8047 13.8048C8.92972 13.6798 8.99996 13.5102 8.99996 13.3334V9.33341C8.99996 9.1566 8.92972 8.98703 8.8047 8.86201C8.67967 8.73699 8.5101 8.66675 8.33329 8.66675C8.15648 8.66675 7.98691 8.73699 7.86189 8.86201C7.73686 8.98703 7.66663 9.1566 7.66663 9.33341V13.3334C7.66663 13.5102 7.73686 13.6798 7.86189 13.8048C7.98691 13.9298 8.15648 14.0001 8.33329 14.0001Z" fill="#111928"/>
<path d="M11 14.0001C11.1769 14.0001 11.3464 13.9298 11.4714 13.8048C11.5965 13.6798 11.6667 13.5102 11.6667 13.3334V9.33341C11.6667 9.1566 11.5965 8.98703 11.4714 8.86201C11.3464 8.73699 11.1769 8.66675 11 8.66675C10.8232 8.66675 10.6537 8.73699 10.5286 8.86201C10.4036 8.98703 10.3334 9.1566 10.3334 9.33341V13.3334C10.3334 13.5102 10.4036 13.6798 10.5286 13.8048C10.6537 13.9298 10.8232 14.0001 11 14.0001Z" fill="#111928"/>
</svg>
